<svg width="43" height="42" viewBox="0 0 43 42" fill="none" xmlns="http://www.w3.org/2000/svg">
<rect x="0.0140076" width="42" height="42" rx="21" fill="#D0B99E"/>
<path d="M29.8128 17.0003L27.8129 19.0002L26.313 15.3004C26.1716 14.9218 25.9187 14.5949 25.5878 14.3629C25.2568 14.1308 24.8633 14.0045 24.4592 14.0005H17.2137C16.8062 13.9912 16.4056 14.1065 16.0655 14.3312C15.7254 14.5558 15.4621 14.879 15.3108 15.2574L13.8139 19.0002L11.8141 17.0003M15.8138 22.9999H15.8238M25.8131 22.9999H25.8231" stroke="white" stroke-width="2" stroke-linecap="round" stroke-linejoin="round"/>
<path d="M27.8129 19H13.8139C12.7094 19 11.8141 19.8954 11.8141 20.9999V24.9996C11.8141 26.1041 12.7094 26.9994 13.8139 26.9994H27.8129C28.9174 26.9994 29.8128 26.1041 29.8128 24.9996V20.9999C29.8128 19.8954 28.9174 19 27.8129 19Z" stroke="white" stroke-width="2" stroke-linecap="round" stroke-linejoin="round"/>
<path d="M13.8139 26.9995V28.9994M27.8129 26.9995V28.9994" stroke="white" stroke-width="2" stroke-linecap="round" stroke-linejoin="round"/>
</svg>
