<svg width="24" height="24" viewBox="0 0 24 24" fill="none" xmlns="http://www.w3.org/2000/svg">
<path fill-rule="evenodd" clip-rule="evenodd" d="M4.58203 6.01018C5.27203 4.99518 6.71503 5.03318 7.44403 5.91018C8.42603 7.09118 9.81003 8.25018 12 8.25018C14.228 8.25018 15.591 7.32018 16.519 6.15418C17.24 5.24718 18.778 5.10118 19.534 6.17718C20.152 7.05718 20.828 7.75718 22.162 8.05418C22.3515 8.10165 22.515 8.22116 22.6177 8.38728C22.7204 8.55341 22.7542 8.75305 22.712 8.94375C22.6698 9.13445 22.5549 9.30116 22.3917 9.40844C22.2285 9.51571 22.0298 9.55508 21.838 9.51818C19.997 9.11018 19.039 8.08218 18.306 7.03918C18.258 6.97018 18.171 6.91918 18.04 6.92218C17.9737 6.92291 17.9083 6.93804 17.8484 6.96653C17.7885 6.99502 17.7355 7.03619 17.693 7.08718C16.517 8.56518 14.74 9.75018 12 9.75018C9.17703 9.75018 7.41003 8.21818 6.29003 6.86818C6.25819 6.83016 6.21819 6.79981 6.173 6.77938C6.12781 6.75896 6.0786 6.74897 6.02903 6.75018C5.98861 6.749 5.94853 6.75789 5.9124 6.77605C5.87627 6.7942 5.84521 6.82105 5.82203 6.85418C5.07603 7.95118 4.11903 9.08418 2.16203 9.51818C2.0648 9.54254 1.96366 9.54717 1.86461 9.53178C1.76556 9.51639 1.67059 9.48131 1.58533 9.42859C1.50007 9.37588 1.42624 9.30661 1.36821 9.22488C1.31018 9.14314 1.26912 9.05061 1.24746 8.95273C1.22579 8.85486 1.22397 8.75364 1.2421 8.65505C1.26023 8.55646 1.29793 8.46251 1.35299 8.37874C1.40804 8.29497 1.47933 8.22309 1.56264 8.16734C1.64595 8.1116 1.73959 8.07312 1.83803 8.05418C3.25003 7.74018 3.92603 6.97418 4.58203 6.01018ZM4.58203 11.0102C5.27203 9.99518 6.71503 10.0332 7.44403 10.9102C8.42603 12.0912 9.81003 13.2502 12 13.2502C14.228 13.2502 15.591 12.3202 16.519 11.1542C17.24 10.2472 18.778 10.1012 19.534 11.1772C20.152 12.0572 20.828 12.7572 22.162 13.0542C22.3515 13.1017 22.515 13.2212 22.6177 13.3873C22.7204 13.5534 22.7542 13.7531 22.712 13.9438C22.6698 14.1344 22.5549 14.3012 22.3917 14.4084C22.2285 14.5157 22.0298 14.5551 21.838 14.5182C19.997 14.1102 19.039 13.0822 18.306 12.0392C18.258 11.9702 18.171 11.9192 18.04 11.9222C17.9737 11.9229 17.9083 11.938 17.8484 11.9665C17.7885 11.995 17.7355 12.0362 17.693 12.0872C16.517 13.5662 14.74 14.7502 12 14.7502C9.17703 14.7502 7.41003 13.2172 6.29003 11.8682C6.25819 11.8302 6.21819 11.7998 6.173 11.7794C6.12781 11.759 6.0786 11.749 6.02903 11.7502C5.98861 11.749 5.94853 11.7579 5.9124 11.776C5.87627 11.7942 5.84521 11.821 5.82203 11.8542C5.07603 12.9512 4.11903 14.0842 2.16203 14.5182C1.96776 14.5611 1.76438 14.5252 1.59663 14.4182C1.42887 14.3112 1.3105 14.142 1.26753 13.9477C1.22456 13.7534 1.26053 13.55 1.36752 13.3823C1.47451 13.2145 1.64376 13.0961 1.83803 13.0532C3.25003 12.7412 3.92603 11.9742 4.58203 11.0102ZM4.58203 16.0102C5.27203 14.9952 6.71503 15.0332 7.44403 15.9102C8.42603 17.0912 9.81003 18.2502 12 18.2502C14.228 18.2502 15.591 17.3202 16.519 16.1542C17.24 15.2472 18.778 15.1012 19.534 16.1772C20.152 17.0572 20.828 17.7572 22.162 18.0542C22.3515 18.1017 22.515 18.2212 22.6177 18.3873C22.7204 18.5534 22.7542 18.7531 22.712 18.9438C22.6698 19.1344 22.5549 19.3012 22.3917 19.4084C22.2285 19.5157 22.0298 19.5551 21.838 19.5182C19.997 19.1102 19.039 18.0822 18.306 17.0392C18.258 16.9702 18.171 16.9192 18.04 16.9222C17.9737 16.9229 17.9083 16.938 17.8484 16.9665C17.7885 16.995 17.7355 17.0362 17.693 17.0872C16.517 18.5662 14.74 19.7502 12 19.7502C9.17703 19.7502 7.41003 18.2182 6.29003 16.8682C6.25819 16.8302 6.21819 16.7998 6.173 16.7794C6.12781 16.759 6.0786 16.749 6.02903 16.7502C5.98861 16.749 5.94853 16.7579 5.9124 16.776C5.87627 16.7942 5.84521 16.821 5.82203 16.8542C5.07603 17.9512 4.11903 19.0842 2.16203 19.5182C1.96776 19.5611 1.76438 19.5252 1.59663 19.4182C1.42887 19.3112 1.3105 19.142 1.26753 18.9477C1.22456 18.7534 1.26053 18.55 1.36752 18.3823C1.47451 18.2145 1.64376 18.0961 1.83803 18.0532C3.25003 17.7412 3.92603 16.9742 4.58203 16.0102Z" fill="white"/>
</svg>
