<svg width="20" height="20" viewBox="0 0 20 20" fill="none" xmlns="http://www.w3.org/2000/svg">
<path d="M10 2.85693C9.43171 2.85693 8.88667 3.0827 8.48481 3.48456C8.08294 3.88643 7.85718 4.43147 7.85718 4.99979V9.99979C7.85718 10.5681 8.08294 11.1132 8.48481 11.515C8.88667 11.9169 9.43171 12.1426 10 12.1426C10.5684 12.1426 11.1134 11.9169 11.5153 11.515C11.9171 11.1132 12.1429 10.5681 12.1429 9.99979V4.99979C12.1429 4.43147 11.9171 3.88643 11.5153 3.48456C11.1134 3.0827 10.5684 2.85693 10 2.85693Z" stroke="white" stroke-linecap="round" stroke-linejoin="round"/>
<path d="M15 8.57129V9.99986C15 11.3259 14.4732 12.5977 13.5355 13.5354C12.5979 14.4731 11.3261 14.9999 10 14.9999M10 14.9999C8.67392 14.9999 7.40215 14.4731 6.46447 13.5354C5.52678 12.5977 5 11.3259 5 9.99986V8.57129M10 14.9999V17.1427" stroke="white" stroke-linecap="round" stroke-linejoin="round"/>
</svg>
