<svg width="24" height="24" viewBox="0 0 24 24" fill="none" xmlns="http://www.w3.org/2000/svg">
<path d="M4.1919 3.99996C4.0499 3.99996 3.93123 3.95229 3.8359 3.85696C3.74056 3.76162 3.69256 3.64262 3.6919 3.49996C3.6919 3.35796 3.7399 3.23896 3.8359 3.14296C3.93123 3.04762 4.0499 2.99996 4.1919 2.99996H5.9039C6.0459 2.99996 6.1649 3.04762 6.2609 3.14296C6.35623 3.23896 6.4039 3.35796 6.4039 3.49996C6.4039 3.64196 6.35623 3.76096 6.2609 3.85696C6.16556 3.95296 6.04656 4.00062 5.9039 3.99996H4.1919ZM4.9459 17.5L4.6039 19.23C4.56523 19.4233 4.6069 19.5933 4.7289 19.74C4.8509 19.888 5.0079 19.962 5.1999 19.962H11.4999V17.5H4.9459ZM5.6559 8.17996L6.8749 6.96196C6.96823 6.86862 7.0819 6.82196 7.2159 6.82196C7.3499 6.82196 7.46556 6.86862 7.5629 6.96196C7.67356 7.05929 7.72556 7.17796 7.7189 7.31796C7.71223 7.45796 7.66023 7.57696 7.5629 7.67496L6.3439 8.89496C6.25056 8.98829 6.1369 9.03496 6.0029 9.03496C5.8689 9.03496 5.75323 8.98829 5.6559 8.89496C5.54523 8.79696 5.49323 8.67796 5.4999 8.53796C5.50656 8.39729 5.55856 8.27729 5.6559 8.17996ZM5.1539 16.5H11.4999V13.98H6.1499C6.00856 13.98 5.88023 14.0283 5.7649 14.125C5.64956 14.2216 5.57923 14.3403 5.5539 14.481L5.1539 16.5ZM11.9999 7.01996C10.8732 7.01996 9.91856 6.62829 9.1359 5.84496C8.35323 5.06229 7.9619 4.10762 7.9619 2.98096H8.9619C8.9619 3.82696 9.25656 4.54496 9.8459 5.13496C10.4359 5.72429 11.1539 6.01896 11.9999 6.01896C12.8459 6.01896 13.5639 5.72429 14.1539 5.13496C14.7432 4.54496 15.0379 3.82696 15.0379 2.98096H16.0379C16.0379 4.10762 15.6466 5.06229 14.8639 5.84496C14.0812 6.62762 13.1266 7.01929 11.9999 7.01996ZM11.4999 10.692V8.98096C11.4999 8.83829 11.5476 8.71929 11.6429 8.62396C11.7389 8.52862 11.8579 8.48096 11.9999 8.48096C12.1419 8.48096 12.2609 8.52862 12.3569 8.62396C12.4522 8.71929 12.4999 8.83829 12.4999 8.98096V10.692C12.4999 10.8346 12.4522 10.9536 12.3569 11.049C12.2609 11.1443 12.1419 11.192 11.9999 11.192C11.8579 11.192 11.7389 11.1443 11.6429 11.049C11.5476 10.9536 11.4999 10.8346 11.4999 10.692ZM12.4999 19.962H18.7799C18.9732 19.962 19.1306 19.888 19.2519 19.74C19.3739 19.5933 19.4156 19.4233 19.3769 19.23L19.0349 17.5H12.4999V19.962ZM12.4999 16.5H18.8269L18.4269 14.48C18.4009 14.34 18.3302 14.2216 18.2149 14.125C18.0996 14.0283 17.9716 13.9803 17.8309 13.981H12.4999V16.5ZM17.6749 8.88796L16.4369 7.64996C16.3436 7.55662 16.2989 7.44296 16.3029 7.30896C16.3076 7.17496 16.3586 7.05929 16.4559 6.96196C16.5492 6.86862 16.6606 6.82196 16.7899 6.82196C16.9199 6.82196 17.0316 6.86862 17.1249 6.96196L18.3879 8.18096C18.4986 8.27429 18.5539 8.38796 18.5539 8.52196C18.5539 8.65596 18.4986 8.77796 18.3879 8.88796C18.2779 8.99862 18.1592 9.05396 18.0319 9.05396C17.9046 9.05396 17.7856 8.99862 17.6749 8.88796ZM19.8079 3.99996H17.5959V2.99996H19.8079C19.9499 2.99996 20.0686 3.04762 20.1639 3.14296C20.2599 3.23896 20.3079 3.35796 20.3079 3.49996C20.3079 3.64196 20.2599 3.76096 20.1639 3.85696C20.0679 3.95296 19.9492 4.00062 19.8079 3.99996ZM3.5899 19.023L4.5399 14.273C4.62323 13.8963 4.8109 13.5866 5.1029 13.344C5.39423 13.102 5.7369 12.981 6.1309 12.981H17.8499C18.2432 12.981 18.5859 13.102 18.8779 13.344C19.1699 13.586 19.3572 13.896 19.4399 14.274L20.3899 19.024C20.4852 19.5286 20.3736 19.9776 20.0549 20.371C19.7362 20.7643 19.3179 20.961 18.7999 20.961H5.1799C4.66256 20.961 4.24456 20.7643 3.9259 20.371C3.60723 19.9776 3.49523 19.5283 3.5899 19.023Z" fill="white"/>
</svg>
