<svg width="24" height="24" viewBox="0 0 24 24" fill="none" xmlns="http://www.w3.org/2000/svg">
<path fill-rule="evenodd" clip-rule="evenodd" d="M6.02586 5.80744C4.76967 7.01908 3.91163 8.5841 3.5656 10.2948C3.21957 12.0055 3.40192 13.781 4.08845 15.3856C4.77498 16.9902 5.93323 18.3482 7.40947 19.2791C8.88572 20.2101 10.6102 20.6701 12.3539 20.5981C12.1623 19.7498 12.1363 18.6093 12.7195 17.5107C13.326 16.3674 14.5817 15.8716 15.5054 15.6447C16.0841 15.5046 16.6758 15.4254 17.2709 15.4084H17.3109C18.8671 15.3916 19.5676 14.8856 19.9396 14.4037C20.2578 13.9907 20.3768 13.5786 20.4996 13.1609L20.5461 13.0009C20.6976 11.7237 20.5599 10.4287 20.1432 9.2118C19.7265 7.99495 19.0415 6.8874 18.1388 5.97116C18.1307 6.00225 18.1223 6.03326 18.1137 6.06419C17.962 6.61674 17.7183 7.18233 17.4523 7.58605C17.2142 7.94698 16.7528 8.31163 16.3696 8.58698C16.0998 8.77611 15.8197 8.95002 15.5305 9.10791C15.3185 9.2307 15.1278 9.34047 14.9445 9.4614C14.5427 9.72744 14.232 10.013 14.0227 10.4437C13.9541 10.5859 13.9424 10.749 13.9901 10.8995C14.0599 11.1526 14.1073 11.4372 14.1073 11.7265C14.1092 12.3302 13.8013 12.8205 13.4069 13.1386C13.0053 13.459 12.5058 13.6318 11.9921 13.6279C9.70848 13.6028 8.30389 11.7488 8.11879 9.68744C8.04437 8.86791 7.68532 8.03814 7.23138 7.31349C6.8901 6.76558 6.48547 6.2607 6.02586 5.80744ZM7.11139 4.91814C7.6039 5.42117 8.04053 5.97603 8.41366 6.57302C8.9327 7.40093 9.40803 8.44465 9.50849 9.56279C9.64802 11.1256 10.6368 12.2177 12.007 12.2326C12.1968 12.2328 12.3813 12.1693 12.5307 12.0521C12.6665 11.9433 12.713 11.8288 12.7121 11.7302C12.7121 11.5851 12.6879 11.4251 12.6451 11.2698C12.5074 10.793 12.5508 10.2821 12.7669 9.83535C13.1251 9.09674 13.6562 8.64 14.1752 8.29768C14.3976 8.1507 14.6282 8.0186 14.8357 7.89767L14.9194 7.85116C15.1566 7.71349 15.3659 7.5907 15.5547 7.45395C15.9556 7.16558 16.2096 6.93581 16.2868 6.81767C16.457 6.56093 16.6477 6.13488 16.7686 5.69488C16.8644 5.34698 16.8905 5.07907 16.8821 4.91349C15.4471 3.92205 13.7437 3.39239 11.9995 3.39535C10.253 3.39262 8.54739 3.92397 7.11139 4.91814ZM21.934 13.1535C21.9777 12.7749 22 12.3907 22 12C22 6.47721 17.523 2 12.0005 2C6.47793 2 2 6.47721 2 12C2 17.5228 6.477 22 11.9995 22C17.0784 22 21.2735 18.213 21.9144 13.3079C21.9279 13.2591 21.9428 13.2107 21.9591 13.1628L21.934 13.1535ZM19.3536 16.4716C18.7992 16.6744 18.1313 16.7953 17.3267 16.8037H17.2979L17.2142 16.8065C16.751 16.8263 16.2909 16.8911 15.8403 17C15.0013 17.2056 14.2655 17.5767 13.9529 18.1647C13.5288 18.9637 13.5902 19.8326 13.7483 20.427C14.9037 20.1868 15.9974 19.7118 16.9617 19.0314C17.9259 18.351 18.74 17.4797 19.3536 16.4716Z" fill="white"/>
</svg>
