<svg width="20" height="20" viewBox="0 0 20 20" fill="none" xmlns="http://www.w3.org/2000/svg">
<path d="M7.66683 5.80016V7.20016C7.66683 7.45789 7.45789 7.66683 7.20016 7.66683H5.80016C5.54243 7.66683 5.3335 7.45789 5.3335 7.20016V5.80016C5.3335 5.54243 5.54243 5.3335 5.80016 5.3335H7.20016C7.45789 5.3335 7.66683 5.54243 7.66683 5.80016Z" stroke="white" stroke-linecap="round" stroke-linejoin="round"/>
<path d="M5.3335 10H7.66683" stroke="white" stroke-linecap="round" stroke-linejoin="round"/>
<path d="M12.3335 10V12.3333" stroke="white" stroke-linecap="round" stroke-linejoin="round"/>
<path d="M10 14.6665H12.3333" stroke="white" stroke-linecap="round" stroke-linejoin="round"/>
<path d="M10 10.0089L10.008 10" stroke="white" stroke-linecap="round" stroke-linejoin="round"/>
<path d="M14.6665 10.0089L14.6745 10" stroke="white" stroke-linecap="round" stroke-linejoin="round"/>
<path d="M10 12.3424L10.008 12.3335" stroke="white" stroke-linecap="round" stroke-linejoin="round"/>
<path d="M14.6665 12.3424L14.6745 12.3335" stroke="white" stroke-linecap="round" stroke-linejoin="round"/>
<path d="M14.6665 14.6754L14.6745 14.6665" stroke="white" stroke-linecap="round" stroke-linejoin="round"/>
<path d="M10 7.67539L10.008 7.6665" stroke="white" stroke-linecap="round" stroke-linejoin="round"/>
<path d="M10 5.34238L10.008 5.3335" stroke="white" stroke-linecap="round" stroke-linejoin="round"/>
<path d="M7.66683 12.8002V14.2002C7.66683 14.4579 7.45789 14.6668 7.20016 14.6668H5.80016C5.54243 14.6668 5.3335 14.4579 5.3335 14.2002V12.8002C5.3335 12.5424 5.54243 12.3335 5.80016 12.3335H7.20016C7.45789 12.3335 7.66683 12.5424 7.66683 12.8002Z" stroke="white" stroke-linecap="round" stroke-linejoin="round"/>
<path d="M14.6668 5.80016V7.20016C14.6668 7.45789 14.4579 7.66683 14.2002 7.66683H12.8002C12.5424 7.66683 12.3335 7.45789 12.3335 7.20016V5.80016C12.3335 5.54243 12.5424 5.3335 12.8002 5.3335H14.2002C14.4579 5.3335 14.6668 5.54243 14.6668 5.80016Z" stroke="white" stroke-linecap="round" stroke-linejoin="round"/>
<path d="M14.6665 3H16.9998V5.33333" stroke="white" stroke-linecap="round" stroke-linejoin="round"/>
<path d="M14.6665 16.9998H16.9998V14.6665" stroke="white" stroke-linecap="round" stroke-linejoin="round"/>
<path d="M5.33333 3H3V5.33333" stroke="white" stroke-linecap="round" stroke-linejoin="round"/>
<path d="M5.33333 16.9998H3V14.6665" stroke="white" stroke-linecap="round" stroke-linejoin="round"/>
</svg>
