<svg width="20" height="20" viewBox="0 0 20 20" fill="none" xmlns="http://www.w3.org/2000/svg">
<path d="M6.10209 12.915V17.9121M11.0992 15.4136V17.9121M8.60063 7.91797V8.08454C9.14683 8.29459 9.60197 8.68969 9.88669 9.20095C10.1714 9.71222 10.2676 10.3072 10.1586 10.8821C10.0496 11.4571 9.74216 11.9755 9.29002 12.347C8.83788 12.7186 8.26967 12.9196 7.6845 12.915H4.4364C3.85821 12.9007 3.30292 12.6861 2.86524 12.3081C2.42756 11.93 2.1346 11.4118 2.03633 10.8418C1.93806 10.2718 2.04057 9.68545 2.32637 9.18263C2.61217 8.67981 3.06356 8.29171 3.60355 8.08454V7.91797C3.60355 7.25532 3.86679 6.6198 4.33536 6.15124C4.80392 5.68267 5.43944 5.41943 6.10209 5.41943C6.76474 5.41943 7.40026 5.68267 7.86882 6.15124C8.33739 6.6198 8.60063 7.25532 8.60063 7.91797Z" stroke="white" stroke-linecap="round" stroke-linejoin="round"/>
<path d="M10.2662 15.4134H17.1789C17.3419 15.4111 17.5006 15.3611 17.6354 15.2694C17.7703 15.1777 17.8752 15.0485 17.9373 14.8978C17.9994 14.747 18.0158 14.5814 17.9846 14.4214C17.9534 14.2613 17.876 14.114 17.7619 13.9976L15.2633 11.2492H15.5132C15.6762 11.2469 15.8349 11.1968 15.9697 11.1052C16.1046 11.0135 16.2095 10.8843 16.2716 10.7335C16.3337 10.5828 16.3501 10.4171 16.3189 10.2571C16.2878 10.0971 16.2103 9.94976 16.0962 9.83336L13.5976 7.08497H13.7642C13.9343 7.10031 14.105 7.06298 14.2532 6.97804C14.4014 6.8931 14.5199 6.76465 14.5926 6.61011C14.6653 6.45557 14.6888 6.2824 14.6598 6.11408C14.6308 5.94576 14.5507 5.79042 14.4305 5.66913L11.0991 2.08789L9.93311 3.33716" stroke="white" stroke-linecap="round" stroke-linejoin="round"/>
</svg>
