<svg width="20" height="20" viewBox="0 0 20 20" fill="none" xmlns="http://www.w3.org/2000/svg">
<path d="M8.22878 9.63011L13.0652 4.54681C13.2228 4.37555 13.4113 4.239 13.6196 4.14514C13.8279 4.05127 14.0518 4.00195 14.2784 4.00006C14.505 3.99816 14.7297 4.04373 14.9393 4.1341C15.149 4.22448 15.3395 4.35785 15.4997 4.52646C15.66 4.69507 15.7867 4.89554 15.8726 5.11619C15.9584 5.33685 16.0017 5.57328 15.9999 5.81172C15.9981 6.05016 15.9513 6.28584 15.8621 6.50503C15.7729 6.72423 15.6431 6.92255 15.4804 7.08846L10.65 12.1844M7.03616 11.5474C6.04131 11.5474 5.23824 12.3988 5.23824 13.452C5.23824 14.2909 3.73997 14.4107 4.03962 14.726C4.68687 15.4198 5.5319 16 6.43685 16C7.75533 16 8.83408 14.8648 8.83408 13.452C8.83487 13.2027 8.78899 12.9557 8.69906 12.7251C8.60913 12.4945 8.47692 12.2847 8.30996 12.1079C8.14301 11.931 7.94459 11.7905 7.72603 11.6943C7.50747 11.5981 7.27305 11.5482 7.03616 11.5474Z" stroke="white" stroke-linecap="round" stroke-linejoin="round"/>
</svg>
