<svg width="43" height="42" viewBox="0 0 43 42" fill="none" xmlns="http://www.w3.org/2000/svg">
<rect x="0.43457" width="42" height="42" rx="21" fill="#D0B99E"/>
<path d="M27.9346 30C29.8676 30 31.4346 28.433 31.4346 26.5C31.4346 24.567 29.8676 23 27.9346 23C26.0016 23 24.4346 24.567 24.4346 26.5C24.4346 28.433 26.0016 30 27.9346 30Z" stroke="white" stroke-width="2" stroke-linecap="round" stroke-linejoin="round"/>
<path d="M14.9346 30C16.8676 30 18.4346 28.433 18.4346 26.5C18.4346 24.567 16.8676 23 14.9346 23C13.0016 23 11.4346 24.567 11.4346 26.5C11.4346 28.433 13.0016 30 14.9346 30Z" stroke="white" stroke-width="2" stroke-linecap="round" stroke-linejoin="round"/>
<path d="M24.4346 15C24.9869 15 25.4346 14.5523 25.4346 14C25.4346 13.4477 24.9869 13 24.4346 13C23.8823 13 23.4346 13.4477 23.4346 14C23.4346 14.5523 23.8823 15 24.4346 15Z" stroke="white" stroke-width="2" stroke-linecap="round" stroke-linejoin="round"/>
<path d="M21.4346 26.5V24.1213C21.4346 23.4034 21.1494 22.7148 20.6417 22.2071L20.2791 21.8445C19.3056 20.871 19.42 19.2609 20.5214 18.4349V18.4349C21.5604 17.6556 23.0415 17.9104 23.7619 18.9911V18.9911C24.1819 19.621 24.8893 20 25.6464 20H26.4346" stroke="white" stroke-width="2" stroke-linecap="round" stroke-linejoin="round"/>
</svg>
