<svg width="24" height="24" viewBox="0 0 24 24" fill="none" xmlns="http://www.w3.org/2000/svg">
<path d="M12 14.1907V20.1907M14.1429 11.1907C18.8571 13.3336 21 17.1907 21 17.1907C21 17.1907 15.8571 17.1907 12 13.7621C8.14286 17.1907 3 17.1907 3 17.1907C3 17.1907 5.14286 12.905 9.85714 11.1907C9.85714 5.61928 12 3.04785 12 3.04785C12 3.04785 14.1429 5.61928 14.1429 11.1907Z" stroke="#D0B99E" stroke-linecap="round" stroke-linejoin="round"/>
<path d="M12 12.4765C12.4734 12.4765 12.8571 12.0927 12.8571 11.6193C12.8571 11.146 12.4734 10.7622 12 10.7622C11.5266 10.7622 11.1428 11.146 11.1428 11.6193C11.1428 12.0927 11.5266 12.4765 12 12.4765Z" fill="#D0B99E"/>
</svg>
