<svg width="20" height="20" viewBox="0 0 20 20" fill="none" xmlns="http://www.w3.org/2000/svg">
<path d="M13.2566 4.35003C12.6135 3.70566 11.7937 3.26668 10.9009 3.08871C10.0081 2.91075 9.08255 3.00182 8.24157 3.35037C7.40058 3.69893 6.68199 4.28929 6.17684 5.04664C5.6717 5.80399 5.40275 6.69425 5.40406 7.6046C5.40406 7.76366 5.46724 7.91621 5.57972 8.02868C5.69219 8.14115 5.84473 8.20434 6.00379 8.20434C6.16285 8.20434 6.3154 8.14115 6.42787 8.02868C6.54034 7.91621 6.60353 7.76366 6.60353 7.6046C6.60195 6.93018 6.80059 6.27047 7.1743 5.70905C7.548 5.14763 8.07994 4.70977 8.70272 4.45095C9.32551 4.19213 10.0111 4.12399 10.6726 4.25518C11.3342 4.38637 11.9419 4.71097 12.4188 5.18786C12.8957 5.66474 13.2203 6.27246 13.3515 6.934C13.4826 7.59554 13.4145 8.28114 13.1557 8.90392C12.8969 9.5267 12.459 10.0586 11.8976 10.4323C11.3362 10.806 10.6765 11.0047 10.002 11.0031C9.84362 11.0052 9.69228 11.069 9.58025 11.1811C9.46822 11.2931 9.40437 11.4444 9.4023 11.6028V13.2021C9.4023 13.3612 9.46549 13.5137 9.57796 13.6262C9.69043 13.7387 9.84298 13.8019 10.002 13.8019C10.1611 13.8019 10.3136 13.7387 10.4261 13.6262C10.5386 13.5137 10.6018 13.3612 10.6018 13.2021V12.1626C11.4518 12.0487 12.2532 11.6998 12.9157 11.155C13.5781 10.6103 14.0753 9.89141 14.3512 9.07937C14.6272 8.26732 14.6709 7.39436 14.4775 6.55879C14.2841 5.72323 13.8613 4.95826 13.2566 4.35003Z" fill="white"/>
<path d="M10.002 17.0006C10.554 17.0006 11.0016 16.5531 11.0016 16.001C11.0016 15.449 10.554 15.0015 10.002 15.0015C9.44996 15.0015 9.00244 15.449 9.00244 16.001C9.00244 16.5531 9.44996 17.0006 10.002 17.0006Z" fill="white"/>
</svg>
