<svg width="20" height="20" viewBox="0 0 20 20" fill="none" xmlns="http://www.w3.org/2000/svg">
<path d="M13.6158 10.5934L8.93687 14.3072L6.07741 12.3635L7.80909 6.64642C8.3029 5.01615 9.56574 3.73233 11.1876 3.21172L14.6498 2.10043C14.9709 1.99734 15.3035 2.22339 15.3258 2.55991L15.5663 6.18809C15.679 7.88773 14.9499 9.53435 13.6158 10.5934Z" stroke="white" stroke-linecap="round" stroke-linejoin="round"/>
<path d="M4.61963 14.5083C3.64779 15.938 4.5916 17.6247 4.5916 17.6247C4.5916 17.6247 6.50725 17.8817 7.47909 16.452" stroke="white" stroke-linecap="round" stroke-linejoin="round"/>
<path d="M7.19187 8.41791C3.47504 8.50435 2.96109 12.3356 2.96109 12.3356L6.07753 12.3637" stroke="white" stroke-linecap="round" stroke-linejoin="round"/>
<path d="M12.5042 12.0287C13.7914 15.5166 10.418 17.4042 10.418 17.4042L9.24525 14.5167" stroke="white" stroke-linecap="round" stroke-linejoin="round"/>
<path d="M10.4226 9.04614C9.63294 8.50939 9.42794 7.43421 9.96468 6.64457C10.5014 5.85495 11.5766 5.64994 12.3663 6.18668C13.1559 6.72343 13.3609 7.79863 12.8241 8.58825C12.2874 9.37789 11.2122 9.58289 10.4226 9.04614Z" stroke="white" stroke-linecap="round" stroke-linejoin="round"/>
</svg>
