<svg width="43" height="42" viewBox="0 0 43 42" fill="none" xmlns="http://www.w3.org/2000/svg">
<rect x="0.406494" width="42" height="42" rx="21" fill="#D0B99E"/>
<path d="M18.1131 25.641C18.3653 25.641 18.6072 25.5384 18.7856 25.3556C18.9639 25.1729 19.0642 24.9251 19.0642 24.6667C19.0642 24.4083 18.9639 24.1604 18.7856 23.9777C18.6072 23.795 18.3653 23.6923 18.1131 23.6923C17.8608 23.6923 17.6189 23.795 17.4405 23.9777C17.2622 24.1604 17.162 24.4083 17.162 24.6667C17.162 24.9251 17.2622 25.1729 17.4405 25.3556C17.6189 25.5384 17.8608 25.641 18.1131 25.641ZM26.6729 24.6667C26.6729 24.9251 26.5727 25.1729 26.3943 25.3556C26.216 25.5384 25.9741 25.641 25.7218 25.641C25.4696 25.641 25.2276 25.5384 25.0493 25.3556C24.8709 25.1729 24.7707 24.9251 24.7707 24.6667C24.7707 24.4083 24.8709 24.1604 25.0493 23.9777C25.2276 23.795 25.4696 23.6923 25.7218 23.6923C25.9741 23.6923 26.216 23.795 26.3943 23.9777C26.5727 24.1604 26.6729 24.4083 26.6729 24.6667ZM20.7286 14.9231C20.5394 14.9231 20.3579 15.0001 20.2242 15.1371C20.0904 15.2742 20.0152 15.46 20.0152 15.6538C20.0152 15.8477 20.0904 16.0335 20.2242 16.1706C20.3579 16.3076 20.5394 16.3846 20.7286 16.3846H23.1063C23.2955 16.3846 23.4769 16.3076 23.6107 16.1706C23.7445 16.0335 23.8196 15.8477 23.8196 15.6538C23.8196 15.46 23.7445 15.2742 23.6107 15.1371C23.4769 15.0001 23.2955 14.9231 23.1063 14.9231H20.7286ZM17.8753 12C16.9294 12 16.0222 12.385 15.3533 13.0702C14.6844 13.7554 14.3087 14.6848 14.3087 15.6538V19.3077H13.1198C12.9306 19.3077 12.7492 19.3847 12.6154 19.5217C12.4816 19.6588 12.4065 19.8446 12.4065 20.0385C12.4065 20.2323 12.4816 20.4181 12.6154 20.5552C12.7492 20.6922 12.9306 20.7692 13.1198 20.7692H14.3087V29.2949C14.3087 30.2361 15.0534 31 15.9731 31H17.3997C17.8412 31 18.2645 30.8204 18.5767 30.5006C18.8888 30.1808 19.0642 29.7471 19.0642 29.2949V28.0769H24.7707V29.2949C24.7707 30.2361 25.5164 31 26.4351 31H27.8618C28.3032 31 28.7265 30.8204 29.0387 30.5006C29.3508 30.1808 29.5262 29.7471 29.5262 29.2949V20.7692H30.6932C30.8824 20.7692 31.0638 20.6922 31.1976 20.5552C31.3313 20.4181 31.4065 20.2323 31.4065 20.0385C31.4065 19.8446 31.3313 19.6588 31.1976 19.5217C31.0638 19.3847 30.8824 19.3077 30.6932 19.3077H29.5262V15.6538C29.5262 14.6848 29.1504 13.7554 28.4815 13.0702C27.8127 12.385 26.9055 12 25.9596 12H17.8753ZM28.0995 28.0769V29.2949C28.0995 29.3595 28.0745 29.4214 28.0299 29.4671C27.9853 29.5128 27.9248 29.5385 27.8618 29.5385H26.4351C26.3721 29.5385 26.3116 29.5128 26.267 29.4671C26.2224 29.4214 26.1974 29.3595 26.1974 29.2949V28.0769H28.0995ZM28.0995 26.6154H15.7353V22.7179H28.0995V26.6154ZM15.7353 29.2949V28.0769H17.6375V29.2949C17.6375 29.3595 17.6125 29.4214 17.5679 29.4671C17.5233 29.5128 17.4628 29.5385 17.3997 29.5385H15.9731C15.91 29.5385 15.8496 29.5128 15.805 29.4671C15.7604 29.4214 15.7353 29.3595 15.7353 29.2949ZM15.7353 15.6538C15.7353 15.0724 15.9608 14.5148 16.3621 14.1037C16.7634 13.6925 17.3077 13.4615 17.8753 13.4615H25.9596C26.5271 13.4615 27.0714 13.6925 27.4728 14.1037C27.8741 14.5148 28.0995 15.0724 28.0995 15.6538V21.2564H15.7353V15.6538Z" fill="white" stroke="white" stroke-width="0.3"/>
</svg>
