<svg width="43" height="42" viewBox="0 0 43 42" fill="none" xmlns="http://www.w3.org/2000/svg">
<rect x="0.481262" width="42" height="42" rx="21" fill="#D0B99E"/>
<path d="M21.7802 16.5179C23.0278 16.5179 24.0391 15.5065 24.0391 14.259C24.0391 13.0114 23.0278 12 21.7802 12C20.5326 12 19.5212 13.0114 19.5212 14.259C19.5212 15.5065 20.5326 16.5179 21.7802 16.5179Z" stroke="white" stroke-width="2"/>
<path d="M23.8278 30.4325C23.9245 30.5824 24.0763 30.6882 24.2505 30.7269C24.4246 30.7656 24.607 30.7341 24.758 30.6392C24.9091 30.5442 25.0166 30.3936 25.0573 30.2199C25.098 30.0462 25.0686 29.8635 24.9754 29.7114L23.8278 30.4325ZM16.1492 23.1478C16.1285 23.2351 16.1253 23.3257 16.1399 23.4143C16.1545 23.5029 16.1866 23.5877 16.2342 23.6638C16.2819 23.7399 16.3442 23.8058 16.4175 23.8576C16.4908 23.9094 16.5737 23.9462 16.6613 23.9657C16.7489 23.9852 16.8396 23.9871 16.928 23.9713C17.0163 23.9555 17.1007 23.9223 17.1761 23.8736C17.2516 23.8249 17.3166 23.7617 17.3674 23.6877C17.4182 23.6136 17.4538 23.5302 17.4721 23.4424L16.1492 23.1478ZM27.8678 22.5821C28.0318 22.5204 28.1656 22.3976 28.241 22.2393C28.3164 22.0811 28.3275 21.8998 28.2721 21.7335C28.2167 21.5672 28.099 21.4289 27.9437 21.3476C27.7885 21.2662 27.6077 21.2482 27.4395 21.2973L27.8678 22.5821ZM24.3465 20.4741L23.7013 20.6846L24.3456 20.4732L24.3465 20.4741ZM20.2027 19.1612L20.059 20.5952L21.4081 20.7307L21.5508 19.2967L20.2027 19.1612ZM21.5011 26.7323L23.8278 30.4325L24.9754 29.7114L22.6478 26.0103L21.5002 26.7314L21.5011 26.7323ZM20.8768 18.5513H20.6138V19.9066H20.8768V18.5513ZM16.4239 21.9126L16.1492 23.1478L17.4721 23.4424L17.7467 22.2063L16.4239 21.9126ZM20.8768 19.9066H22.4761V18.5513H20.8768V19.9066ZM27.2081 22.8026L27.8678 22.5821L27.4395 21.2973L26.7798 21.5168L27.2081 22.8026ZM22.4761 19.9066C22.6315 19.9066 22.6749 19.9066 22.7092 19.9094L22.8059 18.5576C22.711 18.5513 22.6098 18.5513 22.4761 18.5513V19.9066ZM25.0757 20.5816C25.0432 20.4515 25.0188 20.353 24.9898 20.2627L23.7013 20.6846C23.7122 20.7172 23.723 20.7578 23.761 20.9096L25.0757 20.5816ZM22.7092 19.9094C23.1673 19.9428 23.5577 20.2482 23.7013 20.6846L24.9898 20.2627C24.8363 19.7937 24.5465 19.3811 24.1576 19.0775C23.7686 18.7738 23.2981 18.5928 22.8059 18.5576L22.7092 19.9094ZM20.6138 18.5513C19.9361 18.5513 19.3669 18.5504 18.9069 18.6055C18.429 18.6642 17.9925 18.7907 17.6103 19.0979L18.4579 20.1551C18.5708 20.0648 18.7289 19.9925 19.0705 19.9509C19.4292 19.9075 19.9018 19.9066 20.6138 19.9066V18.5513ZM17.7467 22.2063C17.9013 21.5114 18.0061 21.0497 18.1272 20.709C18.241 20.3846 18.3458 20.2455 18.4579 20.1551L17.6103 19.0979C17.2272 19.4052 17.0085 19.8027 16.8486 20.2572C16.695 20.6937 16.5721 21.2503 16.4239 21.9126L17.7467 22.2063ZM23.761 20.9096C23.8044 21.084 23.8369 21.2141 23.8757 21.3262L25.1561 20.8816C25.1258 20.7826 25.099 20.6825 25.0757 20.5816L23.761 20.9096ZM26.7798 21.5168C26.5811 21.5828 26.5259 21.6009 26.4844 21.6108L26.797 22.93C26.9118 22.9029 27.0383 22.8586 27.2081 22.8026L26.7798 21.5168ZM23.8757 21.3262C24.0776 21.9078 24.4882 22.3937 25.0279 22.6899C25.5676 22.986 26.198 23.0722 26.797 22.93L26.4844 21.6108C26.2121 21.6755 25.9255 21.636 25.68 21.5014C25.4346 21.3669 25.2479 21.146 25.1561 20.8816L23.8757 21.3262ZM20.059 20.5952C19.9108 22.0779 19.8132 22.9743 20.0174 23.8426L21.3367 23.5327C21.1966 22.9345 21.2508 22.3029 21.4081 20.7307L20.059 20.5952ZM22.6478 26.0103C21.8074 24.6721 21.4776 24.1309 21.3367 23.5327L20.0174 23.8426C20.2217 24.7119 20.7087 25.4691 21.502 26.7314L22.6478 26.0103Z" fill="white"/>
<path d="M20.7331 20.6629L21.4081 20.7307M21.4081 20.7307L20.059 20.5952M21.4081 20.7307L21.5508 19.2967L20.2027 19.1612L20.059 20.5952M21.4081 20.7307C21.2508 22.3029 21.1966 22.9345 21.3367 23.5327M22.0749 26.3709L21.5011 26.7323M21.5011 26.7323L23.8278 30.4325M21.5011 26.7323L21.5002 26.7314L22.6478 26.0103M23.8278 30.4325C23.9245 30.5824 24.0763 30.6882 24.2505 30.7269C24.4246 30.7656 24.607 30.7341 24.758 30.6392C24.9091 30.5442 25.0166 30.3936 25.0573 30.2199C25.098 30.0462 25.0686 29.8635 24.9754 29.7114M23.8278 30.4325L24.9754 29.7114M24.9754 29.7114L22.6478 26.0103M17.0853 22.059L17.7467 22.2063M17.7467 22.2063L17.4721 23.4424M17.7467 22.2063L16.4239 21.9126M17.7467 22.2063C17.9013 21.5114 18.0061 21.0497 18.1272 20.709C18.241 20.3846 18.3458 20.2455 18.4579 20.1551M16.1492 23.1478C16.1285 23.2351 16.1253 23.3257 16.1399 23.4143C16.1545 23.5029 16.1866 23.5877 16.2342 23.6638C16.2819 23.7399 16.3442 23.8058 16.4175 23.8576C16.4908 23.9094 16.5737 23.9462 16.6613 23.9657C16.7489 23.9852 16.8396 23.9871 16.928 23.9713C17.0163 23.9555 17.1007 23.9223 17.1761 23.8736C17.2516 23.8249 17.3166 23.7617 17.3674 23.6877C17.4182 23.6136 17.4538 23.5302 17.4721 23.4424M16.1492 23.1478L17.4721 23.4424M16.1492 23.1478L16.4239 21.9126M26.994 22.1593L26.7798 21.5168M26.7798 21.5168L27.4395 21.2973M26.7798 21.5168L27.2081 22.8026M26.7798 21.5168C26.5811 21.5828 26.5259 21.6009 26.4844 21.6108M27.8678 22.5821C28.0318 22.5204 28.1656 22.3976 28.241 22.2393C28.3164 22.0811 28.3275 21.8998 28.2721 21.7335C28.2167 21.5672 28.099 21.4289 27.9437 21.3476C27.7885 21.2662 27.6077 21.2482 27.4395 21.2973M27.8678 22.5821L27.4395 21.2973M27.8678 22.5821L27.2081 22.8026M22.758 19.2335L22.7092 19.9094M22.7092 19.9094C22.6749 19.9066 22.6315 19.9066 22.4761 19.9066M22.7092 19.9094L22.8059 18.5576M22.7092 19.9094C23.1673 19.9428 23.5577 20.2482 23.7013 20.6846M24.4188 20.7452L23.761 20.9096M23.761 20.9096C23.723 20.7578 23.7122 20.7172 23.7013 20.6846M23.761 20.9096L25.0757 20.5816M23.761 20.9096C23.8044 21.084 23.8369 21.2141 23.8757 21.3262M23.7013 20.6846L24.3465 20.4741L24.3456 20.4732L23.7013 20.6846ZM23.7013 20.6846L24.9898 20.2627M18.0332 19.6265L18.4579 20.1551M18.4579 20.1551L17.6103 19.0979M18.4579 20.1551C18.5708 20.0648 18.7289 19.9925 19.0705 19.9509C19.4292 19.9075 19.9018 19.9066 20.6138 19.9066M24.5155 21.1039L25.1561 20.8816M25.1561 20.8816L23.8757 21.3262M25.1561 20.8816C25.1258 20.7826 25.099 20.6825 25.0757 20.5816M25.1561 20.8816C25.2479 21.146 25.4346 21.3669 25.68 21.5014C25.9255 21.636 26.2121 21.6755 26.4844 21.6108M26.6389 22.2695L26.4835 21.6099M20.059 20.5952C19.9108 22.0779 19.8132 22.9743 20.0174 23.8426M22.6478 26.0103C21.8074 24.6721 21.4776 24.1309 21.3367 23.5327M22.6478 26.0103L21.502 26.7314C20.7087 25.4691 20.2217 24.7119 20.0174 23.8426M20.8768 18.5513H20.6138M20.8768 18.5513V19.9066M20.8768 18.5513H22.4761M20.6138 18.5513V19.9066M20.6138 18.5513C19.9361 18.5513 19.3669 18.5504 18.9069 18.6055C18.429 18.6642 17.9925 18.7907 17.6103 19.0979M20.6138 19.9066H20.8768M20.8768 19.9066H22.4761M16.4239 21.9126C16.5721 21.2503 16.695 20.6937 16.8486 20.2572C17.0085 19.8027 17.2272 19.4052 17.6103 19.0979M22.4761 19.9066V18.5513M22.4761 18.5513C22.6098 18.5513 22.711 18.5513 22.8059 18.5576M27.2081 22.8026C27.0383 22.8586 26.9118 22.9029 26.797 22.93M22.8059 18.5576C23.2981 18.5928 23.7686 18.7738 24.1576 19.0775C24.5465 19.3811 24.8363 19.7937 24.9898 20.2627M25.0757 20.5816C25.0432 20.4515 25.0188 20.353 24.9898 20.2627M23.8757 21.3262C24.0776 21.9078 24.4882 22.3937 25.0279 22.6899C25.5676 22.986 26.198 23.0722 26.797 22.93M26.4844 21.6108L26.797 22.93M20.0174 23.8426L21.3367 23.5327" stroke="white" stroke-width="0.5"/>
<path d="M19.1542 26.5527L16.9153 29.9111" stroke="white" stroke-width="2" stroke-linecap="round"/>
</svg>
